<?xml version="1.0" encoding="utf-8"?>
<!-- Generator: Adobe Illustrator 25.0.0, SVG Export Plug-In . SVG Version: 6.00 Build 0)  -->
<svg version="1.1" id="Layer_1" xmlns="http://www.w3.org/2000/svg" xmlns:xlink="http://www.w3.org/1999/xlink" x="0px" y="0px"
	 viewBox="0 0 100 100" style="enable-background:new 0 0 100 100;" xml:space="preserve">
<style type="text/css">
	.st0{fill:url(#SVGID_1_);}
	.st1{fill:url(#SVGID_2_);}
	.st2{fill:none;stroke:#FFFFFF;stroke-width:0.15;stroke-miterlimit:10;}
	.st3{enable-background:new    ;}
	.st4{fill:#FFFFFF;}
	.st5{fill:#F579A6;}
	.st6{fill:#6F3FF5;}
	.st7{fill:#FFCC00;}
	.st8{fill:#15003E;}
</style>
<g id="a41bad43-608e-44b4-ad62-f28aac99475d">
	
		<linearGradient id="SVGID_1_" gradientUnits="userSpaceOnUse" x1="6.84" y1="52" x2="93.16" y2="52" gradientTransform="matrix(1 0 0 -1 0 102)">
		<stop  offset="0" style="stop-color:#3B2F58"/>
		<stop  offset="1" style="stop-color:#3B2F58"/>
	</linearGradient>
	<polygon class="st0" points="93.2,25.1 93.2,74.9 50,99.8 15.5,79.9 15.3,79.8 6.8,74.9 6.8,25.1 50,0.2 	"/>
</g>
<linearGradient id="SVGID_2_" gradientUnits="userSpaceOnUse" x1="9.1393" y1="52" x2="80.7807" y2="52" gradientTransform="matrix(1 0 0 -1 5.04 102)">
	<stop  offset="0" style="stop-color:#FFFFFF"/>
	<stop  offset="1" style="stop-color:#9B94B0"/>
</linearGradient>
<path class="st1" d="M50,8.2L14.2,29.5v41.4L50,91.8l35.8-20.9v-42L50,8.2z M84.5,70l-34.4,20L15.7,70V30.3L50.1,9.9l34.4,19.8
	L84.5,70z"/>
<g>
	<g>
		<path class="st2" d="M75.8,56.6c0.1-0.6,0.1-1.1,0.1-1.7c0-5.4-4-9-8.9-8c-4.9,1-8.9,6.2-8.9,11.6c1.7,0.3,3.4,0.7,5.2,1.2
			c0-3.6,2.7-7,5.9-7.7c2.8-0.6,5.2,1.1,5.8,3.9"/>
		<path class="st2" d="M75.2,58.1c0-0.5-0.1-1.8-0.2-2.2"/>
		<g class="st3">
			<g>
				<path class="st2" d="M58.1,58.5c1.7,0.3,3.4,0.7,5.2,1.2c0-3.6,2.7-7,5.9-7.7c-0.8-1.7-1.5-3.4-2.2-5.1
					C62.1,47.9,58.1,53.1,58.1,58.5z"/>
				<path class="st2" d="M59.3,53.3c1.6,0.9,3.2,1.9,4.8,2.9"/>
				<path class="st2" d="M62.5,49.1c1.2,1.4,2.4,2.9,3.7,4.3"/>
			</g>
			<g>
				<path class="st2" d="M65,60.2c0-3.1,2.3-6,5.1-6.6"/>
				<path class="st2" d="M66.7,60.7c0-2.6,1.9-5,4.2-5.5"/>
				<path class="st2" d="M64.1,56.2c1.6,1,3.2,2.1,4.8,3.1"/>
				<path class="st2" d="M66.2,53.5c1.3,1.4,2.6,2.9,3.9,4.3"/>
			</g>
			<g>
				<path class="st2" d="M69.2,52c0.8,1.7,1.7,3.3,2.6,4.9"/>
				<path class="st2" d="M70,53.6c3.4-0.6,5.5,2.5,5.1,5.4"/>
				<path class="st2" d="M70.9,55.3c2.3-0.5,4.3,1.2,4.3,3.8"/>
				<path class="st2" d="M72.2,52.3c0.3,1.6,0.8,3.2,1.4,4.8"/>
				<path class="st2" d="M74.3,54.2c0,1.3,0.5,3.8,0.8,5.1"/>
			</g>
			<g>
				<path class="st2" d="M68.8,59.3c1.6,1.1,3,2,4.5,3.1"/>
			</g>
		</g>
		<path class="st2" d="M68.3,65.1c0.3,0,0.6,0,0.9-0.1c0.5-0.1,1.6-0.3,2-0.5"/>
		<g class="st3">
			<g>
				<path class="st2" d="M67,66.5c0.6-0.6,1.4-1.2,2.2-1.5c-3.3,0.7-5.9-1.7-5.9-5.3c-1.7-0.5-3.5-0.9-5.2-1.2
					C58.1,63.9,62.1,67.5,67,66.5z"/>
				<path class="st2" d="M62.5,66.1c1.2-0.6,2.4-1.1,3.7-1.4"/>
				<path class="st2" d="M59.3,63.2c1.6-0.3,3.2-0.4,4.8-0.4"/>
			</g>
			<g>
				<path class="st2" d="M68.3,61.3c-1.7-0.6-3.4-1.2-5.1-1.7c0,3.6,2.6,6,5.9,5.3"/>
				<path class="st2" d="M71.2,64.5c-2.8,0.6-6.2-1.3-6.2-4.3"/>
				<path class="st2" d="M71.2,64.5c-2.3,0.5-4.5-1.2-4.5-3.8"/>
				<path class="st2" d="M66.2,64.7c1.3-0.3,2.6-0.4,3.9-0.4"/>
				<path class="st2" d="M64.1,62.8c1.6,0,3.2,0.1,4.8,0.4"/>
			</g>
			<g>
				<path class="st2" d="M68.8,63.2c1.1,0.2,2.1,0.4,3.2,0.7"/>
			</g>
		</g>
		<g class="st3">
			<g>
				<path class="st2" d="M69.2,52c0.8,1.7,1.7,3.3,2.6,4.9"/>
			</g>
			<g>
				<path class="st2" d="M72.8,58.4c1-0.2,1.8,0.2,2.3,0.9"/>
				<path class="st2" d="M73.8,59.9c0.4-0.1,0.7,0,1,0.1"/>
			</g>
		</g>
		<g class="st3">
			<g>
				<path class="st2" d="M69.2,52c0.8,1.7,1.7,3.3,2.6,4.9"/>
			</g>
		</g>
		<g class="st3">
			<g>
				<path class="st2" d="M64.1,56.2c1.6,1,3.2,2.1,4.8,3.1"/>
				<path class="st2" d="M66.2,53.5c1.3,1.4,2.6,2.9,3.9,4.3"/>
			</g>
			<g>
				<path class="st2" d="M73.6,57c-0.6-1.5-1-3.1-1.4-4.8c-0.4-2.2-0.5-2.7-0.6-4.9"/>
			</g>
			<g>
				<path class="st2" d="M74.4,60.8c-1.1-1.4-1.6-2.3-2.6-3.9c-1.9,0.4-3.5,2.4-3.5,4.5c1.7,0.6,2.7,1.1,4.3,1.8"/>
				<path class="st2" d="M70,62c0-1.7,1.2-3.3,2.8-3.6"/>
				<path class="st2" d="M71.6,62.7c0-1.3,1-2.5,2.1-2.8"/>
				<path class="st2" d="M70.1,57.7c1.3,1.4,2.5,2.6,3.8,3.9"/>
			</g>
			<g>
				<path class="st2" d="M73.6,57c0.4,1,0.8,2,1.2,2.9"/>
			</g>
		</g>
		<g class="st3">
			<g>
				<path class="st2" d="M68.3,61.3c-1.7-0.6-3.4-1.2-5.1-1.7c0,3.6,2.6,6,5.9,5.3"/>
			</g>
			<g>
				<path class="st2" d="M71.4,64.4C70.6,64,70,63.1,70,62"/>
				<path class="st2" d="M72,63.9c-0.2-0.3-0.3-0.7-0.3-1.2"/>
			</g>
		</g>
		<g class="st3">
			<g>
				<path class="st2" d="M68.3,61.3c-1.7-0.6-3.4-1.2-5.1-1.7c0,3.6,2.6,6,5.9,5.3"/>
			</g>
		</g>
		<path class="st2" d="M43.7,58.3c1.4-0.3,2.9-0.5,4.4-0.5c0-9.8,7.3-19.2,16.2-21c8.9-1.8,16.2,4.7,16.1,14.5
			c0,9.8-7.3,19.2-16.2,21c-8.9,1.8-16.2-4.7-16.1-14.5C46.6,57.8,45.1,58,43.7,58.3c0,12.3,9,20.4,20.2,18.1
			c11.2-2.3,20.3-14,20.3-26.3S75.2,29.7,64,32C52.8,34.2,43.8,46,43.7,58.3z"/>
		<g class="st3">
			<g>
				<path class="st2" d="M43.7,58.3c1.4-0.3,2.9-0.5,4.4-0.5c0-9.8,7.3-19.2,16.2-21C64.1,35.1,64,33.5,64,32
					C52.8,34.2,43.8,46,43.7,58.3z"/>
				<path class="st2" d="M45.1,58c0-11.4,8.5-22.4,18.9-24.5"/>
				<path class="st2" d="M46.6,57.9c0-10.6,7.9-20.8,17.6-22.7"/>
				<path class="st2" d="M46.5,46.5c1.2,0.5,2.5,1.1,3.9,1.9"/>
				<path class="st2" d="M53.8,37.1c0.7,1.2,1.5,2.4,2.4,3.7"/>
			</g>
			<g>
				<path class="st2" d="M64,32c0,1.5,0.1,3.1,0.4,4.8c8.9-1.8,16.2,4.7,16.1,14.5c1.1-0.5,2.4-0.8,3.7-1.1
					C84.3,37.9,75.2,29.7,64,32z"/>
				<path class="st2" d="M64.1,33.5c10.4-2.1,18.9,5.5,18.8,16.9"/>
				<path class="st2" d="M64.2,35.1c9.7-1.9,17.5,5.1,17.5,15.7"/>
				<path class="st2" d="M74.3,33c-0.7,1.4-1.3,3-1.7,4.6"/>
				<path class="st2" d="M81.5,39.5c-1.2,1-2.3,2.1-3.2,3.3"/>
			</g>
			<g>
				<path class="st2" d="M84.3,50.1c-1.4,0.3-2.6,0.6-3.7,1.1c0,9.8-7.3,19.2-16.2,21c-0.2,1.3-0.4,2.7-0.4,4.2
					C75.1,74.2,84.2,62.4,84.3,50.1z"/>
				<path class="st2" d="M82.9,50.4c0,11.4-8.5,22.4-18.9,24.5"/>
				<path class="st2" d="M81.7,50.8c0,10.6-7.9,20.8-17.6,22.7"/>
				<path class="st2" d="M81.5,61.9c-1.2-0.5-2.3-0.9-3.2-1.2"/>
				<path class="st2" d="M74.2,71.3c-0.7-1.2-1.3-2.2-1.7-3.2"/>
			</g>
			<g>
				<path class="st2" d="M64,76.4c0-1.5,0.1-2.9,0.4-4.2c-8.9,1.8-16.2-4.7-16.1-14.5c-1.6,0.1-3.1,0.2-4.4,0.5
					C43.7,70.6,52.8,78.7,64,76.4z"/>
				<path class="st2" d="M64,75C53.6,77,45.1,69.5,45.2,58"/>
				<path class="st2" d="M64.1,73.6c-9.7,1.9-17.5-5.1-17.5-15.7"/>
				<path class="st2" d="M53.7,75.5c0.7-1.4,1.5-2.8,2.4-4"/>
				<path class="st2" d="M46.5,68.9c1.2-1,2.5-1.9,3.9-2.7"/>
			</g>
			<g>
				<path class="st2" d="M48.2,57.7c1.5-0.1,3.2,0,4.8,0.1c0-7.5,5.6-14.7,12.4-16.1c-0.5-1.7-0.8-3.4-1-5
					C55.4,38.5,48.2,48,48.2,57.7z"/>
				<path class="st2" d="M50.4,48.3c1.4,0.7,2.8,1.5,4.3,2.3"/>
				<path class="st2" d="M56.2,40.8c0.9,1.3,1.9,2.7,2.9,4.1"/>
			</g>
			<g>
				<path class="st2" d="M64.4,36.8c0.2,1.6,0.6,3.3,1,5c6.8-1.4,12.4,3.6,12.4,11.1c0.8-0.6,1.7-1.2,2.8-1.6
					C80.5,41.4,73.3,35,64.4,36.8z"/>
				<path class="st2" d="M72.5,37.5c-0.4,1.6-0.7,3.2-0.9,4.8"/>
				<path class="st2" d="M78.3,42.7c-0.9,1.1-1.7,2.4-2.3,3.6"/>
			</g>
			<g>
				<path class="st2" d="M80.5,51.3c-1.1,0.5-2,1-2.8,1.6c0,7.5-5.6,14.7-12.4,16.1c-0.5,1-0.8,2.1-1,3.3
					C73.3,70.5,80.5,61,80.5,51.3z"/>
				<path class="st2" d="M78.3,60.6c-0.9-0.3-1.6-0.5-2.2-0.6"/>
				<path class="st2" d="M72.5,68.2c-0.4-0.9-0.7-1.7-0.9-2.4"/>
			</g>
			<g>
				<path class="st2" d="M64.3,72.2c0.2-1.2,0.6-2.4,1-3.3C58.5,70.3,53,65.3,53,57.8c-1.7-0.1-3.3-0.2-4.8-0.1
					C48.2,67.5,55.4,74,64.3,72.2z"/>
				<path class="st2" d="M56.2,71.5c0.9-1.2,1.9-2.2,3-3.1"/>
				<path class="st2" d="M50.4,66.3c1.4-0.8,2.8-1.4,4.3-1.9"/>
			</g>
		</g>
		<path class="st2" d="M43.7,58.3c1.4-0.3,2.9-0.5,4.4-0.5c0-9.8,7.3-19.2,16.2-21c8.9-1.8,16.2,4.7,16.1,14.5
			c0,9.8-7.3,19.2-16.2,21c-8.9,1.8-16.2-4.7-16.1-14.5C46.6,57.8,45.1,58,43.7,58.3c0,12.3,9,20.4,20.2,18.1
			c11.2-2.3,20.3-14,20.3-26.3S75.2,29.7,64,32C52.8,34.2,43.8,46,43.7,58.3z"/>
		<path class="st2" d="M48.2,57.7c1.5-0.1,3.2,0,4.8,0.1c0-7.5,5.6-14.7,12.4-16.1c6.8-1.4,12.4,3.6,12.4,11.1s-5.6,14.7-12.4,16.1
			C58.5,70.3,53,65.3,53,57.8C51.3,57.7,49.7,57.7,48.2,57.7c0,9.8,7.2,16.3,16.1,14.5c8.9-1.8,16.2-11.2,16.2-21
			c0-9.8-7.2-16.3-16.1-14.5C55.4,38.5,48.2,48,48.2,57.7z"/>
		<g class="st3">
			<g>
				<path class="st2" d="M43.7,58.3c1.4-0.3,2.9-0.5,4.4-0.5c0-9.8,7.3-19.2,16.2-21C64.1,35.1,64,33.5,64,32
					C52.8,34.2,43.8,46,43.7,58.3z"/>
				<path class="st2" d="M46.5,46.5c1.2,0.5,2.5,1.1,3.9,1.9"/>
				<path class="st2" d="M53.8,37.1c0.7,1.2,1.5,2.4,2.4,3.7"/>
			</g>
			<g>
				<path class="st2" d="M64,32c0,1.5,0.1,3.1,0.4,4.8c8.9-1.8,16.2,4.7,16.1,14.5c1.1-0.5,2.4-0.8,3.7-1.1
					C84.3,37.9,75.2,29.7,64,32z"/>
				<path class="st2" d="M74.3,33c-0.7,1.4-1.3,3-1.7,4.6"/>
				<path class="st2" d="M81.5,39.5c-1.2,1-2.3,2.1-3.2,3.3"/>
			</g>
			<g>
				<path class="st2" d="M64,76.4c0-1.5,0.1-2.9,0.4-4.2c-8.9,1.8-16.2-4.7-16.1-14.5c-1.6,0.1-3.1,0.2-4.4,0.5
					C43.7,70.6,52.8,78.7,64,76.4z"/>
				<path class="st2" d="M53.7,75.5c0.7-1.4,1.5-2.8,2.4-4"/>
				<path class="st2" d="M46.5,68.9c1.2-1,2.5-1.9,3.9-2.7"/>
			</g>
			<g>
				<path class="st2" d="M48.2,57.7c1.5-0.1,3.2,0,4.8,0.1c0-7.5,5.6-14.7,12.4-16.1c-0.5-1.7-0.8-3.4-1-5
					C55.4,38.5,48.2,48,48.2,57.7z"/>
				<path class="st2" d="M49.7,57.7c0-9,6.7-17.7,14.9-19.3"/>
				<path class="st2" d="M51.4,57.7c0-8.2,6.1-16.2,13.6-17.7"/>
				<path class="st2" d="M50.4,48.3c1.4,0.7,2.8,1.5,4.3,2.3"/>
				<path class="st2" d="M56.2,40.8c0.9,1.3,1.9,2.7,2.9,4.1"/>
			</g>
			<g>
				<path class="st2" d="M64.4,36.8c0.2,1.6,0.6,3.3,1,5c6.8-1.4,12.4,3.6,12.4,11.1c0.8-0.6,1.7-1.2,2.8-1.6
					C80.5,41.4,73.3,35,64.4,36.8z"/>
				<path class="st2" d="M64.6,38.4c8.2-1.7,14.9,4.3,14.9,13.3"/>
				<path class="st2" d="M65,40.1c7.5-1.5,13.6,3.9,13.6,12.2"/>
				<path class="st2" d="M72.5,37.5c-0.4,1.6-0.7,3.2-0.9,4.8"/>
				<path class="st2" d="M78.3,42.7c-0.9,1.1-1.7,2.4-2.3,3.6"/>
			</g>
			<g>
				<path class="st2" d="M80.5,51.3c-1.1,0.5-2,1-2.8,1.6c0,7.5-5.6,14.7-12.4,16.1c-0.5,1-0.8,2.1-1,3.3
					C73.3,70.5,80.5,61,80.5,51.3z"/>
				<path class="st2" d="M79.5,51.7c0,9-6.7,17.7-14.9,19.3"/>
				<path class="st2" d="M78.6,52.3c0,8.2-6.1,16.2-13.6,17.7"/>
				<path class="st2" d="M78.3,60.6c-0.9-0.3-1.6-0.5-2.2-0.6"/>
				<path class="st2" d="M72.5,68.2c-0.4-0.9-0.7-1.7-0.9-2.4"/>
			</g>
			<g>
				<path class="st2" d="M64.3,72.2c0.2-1.2,0.6-2.4,1-3.3C58.5,70.3,53,65.3,53,57.8c-1.7-0.1-3.3-0.2-4.8-0.1
					C48.2,67.5,55.4,74,64.3,72.2z"/>
				<path class="st2" d="M64.6,71.1c-8.2,1.7-14.9-4.3-14.9-13.3"/>
				<path class="st2" d="M64.9,69.9c-7.5,1.5-13.6-3.9-13.6-12.2"/>
				<path class="st2" d="M56.2,71.5c0.9-1.2,1.9-2.2,3-3.1"/>
				<path class="st2" d="M50.4,66.3c1.4-0.8,2.8-1.4,4.3-1.9"/>
			</g>
			<g>
				<path class="st2" d="M53,57.8c1.6,0.1,3.4,0.3,5.1,0.7c0-5.4,4-10.6,8.9-11.6c-0.6-1.7-1.2-3.4-1.6-5.1
					C58.6,43.1,53,50.3,53,57.8z"/>
				<path class="st2" d="M54.7,50.6c1.5,0.8,3,1.7,4.6,2.7"/>
				<path class="st2" d="M59.2,44.9c1,1.4,2.2,2.8,3.4,4.3"/>
			</g>
			<g>
				<path class="st2" d="M65.4,41.8c0.4,1.7,1,3.4,1.6,5.1c4.9-1,8.9,2.6,8.9,8c0.4-0.7,1.1-1.4,1.8-2
					C77.8,45.4,72.2,40.4,65.4,41.8z"/>
				<path class="st2" d="M71.7,42.4c-0.2,1.6-0.2,3.3-0.1,5"/>
				<path class="st2" d="M76.1,46.3c-0.6,1.2-1,2.5-1.3,3.8c-0.3,1.1-0.4,2.7-0.4,4"/>
			</g>
			<g>
				<path class="st2" d="M77.8,52.9c-0.8,0.6-1.4,1.3-1.8,2c0,5.4-4,10.6-8.9,11.6c-0.6,0.7-1.2,1.5-1.6,2.4
					C72.2,67.5,77.7,60.4,77.8,52.9z"/>
				<path class="st2" d="M76.1,60c-0.6-0.1-1-0.1-1.3,0"/>
				<path class="st2" d="M71.6,65.8c-0.2-0.6-0.2-1.2-0.1-1.6"/>
			</g>
			<g>
				<path class="st2" d="M65.4,68.9c0.4-1,1-1.8,1.6-2.4c-4.9,1-8.9-2.6-8.9-8c-1.7-0.3-3.4-0.5-5.1-0.7
					C53,65.3,58.5,70.3,65.4,68.9z"/>
				<path class="st2" d="M59.1,68.3c1.1-0.9,2.2-1.7,3.4-2.3"/>
				<path class="st2" d="M54.7,64.4c1.5-0.5,3-0.9,4.6-1.2"/>
			</g>
		</g>
		<path class="st2" d="M71.2,64.5c-0.3,0-0.5,0-0.7-0.1c-1.3-0.3-2.1-1.5-2.1-3.1c-1.7-0.6-3.4-1.2-5.1-1.7"/>
		<path class="st2" d="M76,54.9c0,0-0.8,1-0.8,4.2"/>
		<g>
			<path class="st2" d="M76.9,53c0.3,6.6-4.4,13.2-10.5,14.7"/>
			<path class="st2" d="M65.3,43.7c-6.1,1.5-10.8,8.1-10.5,14.7"/>
			<path class="st2" d="M76.9,53c-0.3-6.6-5.5-10.8-11.6-9.3"/>
			<path class="st2" d="M54.8,58.4c0.3,6.6,5.5,10.8,11.6,9.3"/>
		</g>
		<g>
			<path class="st2" d="M68.1,49.4c-4.1,0.8-7.5,5.2-7.5,9.7"/>
			<path class="st2" d="M75.5,56c0-4.5-3.3-7.4-7.5-6.6"/>
			<path class="st2" d="M60.6,59.2c0,4.5,4,7.5,8.1,6.6"/>
		</g>
		<g>
			<path class="st2" d="M76.4,53.8c0.3,6-4,11.9-9.5,13.3"/>
			<path class="st2" d="M65.9,45.4c-5.5,1.4-9.8,7.3-9.5,13.3"/>
			<path class="st2" d="M76.4,53.8c-0.3-6-5-9.7-10.5-8.4"/>
			<path class="st2" d="M56.4,58.8c0.3,6,5,9.7,10.5,8.4"/>
		</g>
	</g>
	<g>
		<path class="st2" d="M70.1,65.1c-0.7,0.4-1.4,0.7-2.1,0.8"/>
		<path class="st2" d="M67.1,48.2c-4.5,1.1-8,6-7.8,10.9"/>
		<path class="st2" d="M67.1,48.2c4.5-1.1,8.4,1.9,8.6,6.9c0,0,0,2.2-0.4,3.4"/>
		<path class="st2" d="M59.4,59.1c0.2,4.9,4.1,8,8.6,6.9"/>
	</g>
	<g>
		<path class="st2" d="M68.4,50.8c-3.7,0.9-6.6,4.9-6.4,9"/>
		<path class="st2" d="M68.4,50.8c3.3-0.8,6.2,1.1,6.9,4.3c0.1,0.6,0.2,1.3,0.1,1.9c0,0.6-0.1,1.6-0.3,2"/>
		<path class="st2" d="M62,59.8c0.2,4,3.3,6.6,7.1,5.6c0,0,0.9-0.1,2.1-1"/>
	</g>
	<path class="st2" d="M71.8,56.9c2-0.3,3.3,0.8,3.3,2.5"/>
</g>
<g id="eydlib7ehv1146_to" transform="translate(286.549690,217.757339)">
	<g id="eydlib7ehv1146_tr" transform="rotate(0)">
		<g id="eydlib7ehv1146" transform="translate(-286.549690,-217.757339)">
			<g id="eydlib7ehv1147">
				<path id="eydlib7ehv1148" class="st4" d="M49.3,52.5c0.7,0.4,1.4,0.6,1.9,0.7c0,0,0.7,0.1,1.8,0c0,0,0.1,0,0.2-0.1
					c0.1-0.1,0.1-0.2,0.1-0.3c0.3-1.5,0.1-2.9,0.1-2.9c-0.2-1.2-0.4-2.3-1-3.7c-0.2-0.4-0.4-0.8-0.4-1c-0.8-1.4-1.6-2.3-2.2-2.9
					c-0.3-0.3-0.6-0.5-0.8-0.7c-0.5-0.4-0.7-0.6-1-0.8c-0.7-0.3-1-0.1-1.3-0.5c-0.1-0.1-0.3-0.3-0.3-0.4c0,0,0.1-0.1,0.1-0.2
					s0-0.2,0-0.2c0.4-0.7,1-2,0.9-3.7c0-0.5-0.1-1.1-0.3-1.8c-0.9-2-3.1-2.5-3.3-2.5c-0.2,0-0.9-0.2-1.8,0c-0.3,0.1-1.2,0.3-2.1,1
					c-0.4,0.4-0.7,1-1.3,2c-0.3,0.6-0.6,1.1-0.8,1.8c-0.3,1.1-0.3,1.5-0.7,2.3c-0.3,0.5-0.4,0.5-0.7,1.1c0,0.1-0.1,0.3-0.3,0.3
					c-0.2,0.1-0.5,0-0.7-0.1c-1.2-0.5-2.1-0.2-2.4-0.8c-0.1-0.1-0.1-0.3-0.1-0.5c0-0.8,0.3-1.4,0.6-2c0.1-0.2,0.3-0.5,0.6-0.9
					c-0.3,0-1.1,0-2-0.4c-0.7-0.4-1.1-1-1.2-1.3c-0.2,0.4-1.5,2.8-1.7,5c0,0.4-0.1,1.7,0.4,2.5c0.1,0.2,0.3,0.3,0.3,0.3
					c0.2,0.2,0.5,0.5,1.1,0.9c0.4,0.2,1,0.4,2.1,0.8c0.8,0.3,1.2,0.4,1.5,0.4c0.4,0,0.5,0,0.7,0.1c0.2,0.2,0.2,0.7,0.2,1.7
					c0,0.2,0,0.4,0,0.7c0,0.3,0,0.3,0,0.8c0,1.1,0,1,0,1c0,0.4,0.1,0.6-0.1,0.9c-0.1,0.1-0.1,0.2-0.2,0.2c0,0.2-0.1,0.4-0.1,0.8
					c0,0.4,0,0.6-0.1,0.7c-0.2,0.2-0.5,0.2-1,0.3c-0.4,0.1-1,0.2-1.4,0.4c-1.7,0.4-2,0.6-2.2,0.8c-0.2,0.2-0.3,0.4-0.5,0.8
					c-0.4,0.7-0.4,1.1-0.8,2c-0.3,0.8-0.6,1.6-1,2.4c-0.1,0.2-0.3,0.5-0.2,0.9c0,0.6,0.4,1,0.7,1.2c0.3,0.3,0.7,0.4,1.3,0.7
					c0.4,0.1,0.5,0.2,0.7,0.2c0.4,0,0.8-0.3,0.9-0.4c0.4-0.3,0.3-0.6,0.8-1.6c0.6-1.4,1-1.6,1-2.1c0-0.1,0-0.2,0.2-0.4
					c0.2-0.1,0.4-0.1,0.5-0.1c0.4,0,0.9-0.1,1.3-0.1c1.3,0,2.1-0.2,2.4-0.2c0.1,0,0.3-0.1,0.3-0.1c0,0.1-0.1,0.2-0.2,0.4
					c-0.2,0.4-0.3,0.8-0.4,1c-0.3,0.7-0.4,0.7-0.7,1.4c0,0-0.2,0.6-0.3,1.3c-0.1,1.4,0.7,1.8,2,4.6c0.1,0.3,0.3,0.7,0.7,0.9
					c0.6,0.3,1.4,0.1,1.6,0c0.1,0,1-0.4,1.2-1.2c0.1-0.2-0.1-0.8-0.4-2c-0.1-0.5-0.2-0.7-0.3-1.2C41,60.2,41,60.2,40.9,60
					c-0.1-0.1-0.1-0.3-0.1-0.4c0.1-0.2,0.3-0.3,0.4-0.3c0.7-0.2,1.1-1.2,2.8-2.8c0.4-0.4,0.7-0.6,0.8-1c0.1-0.3,0.2-0.6,0.3-1.2
					c0.1-0.4,0.1-0.5,0.1-1.1c0,0,0.1-0.4,0.2-1.2c0.1-0.8,0.6-3.3,1.2-6.8c0.6,0.4,1,0.7,1.3,1c0.4,0.4,0.7,0.8,0.7,0.9
					c0,0,0.2,0.3,0.3,0.6C49.3,49.3,49.5,51,49.3,52.5z"/>
				<path id="eydlib7ehv1149" class="st5" d="M47.7,46.2L47,49.7c-0.1,0.4-0.4,0.8-0.8,1l-0.6,0.2l1-5.6L47.7,46.2z"/>
				<path id="eydlib7ehv1150" class="st6" d="M45.6,51.1l-0.1-0.2l0.7-0.2c0.4-0.1,0.7-0.5,0.8-1l0.7-3.6l0.2,0l-0.7,3.6
					c-0.1,0.4-0.4,0.9-0.9,1.1L45.6,51.1z"/>
				<path id="eydlib7ehv1151" class="st7" d="M29.1,39.9C29.1,39.9,29.1,39.9,29.1,39.9L28.9,40c-0.1,0-0.1,0.1-0.1,0.2l0.3,1.3
					c0,0,0,0.1,0.1,0.1c0,0,0.1,0,0.1,0l0.3-0.1c0.1,0,0.1-0.1,0.1-0.2l-0.1-0.4l0.2-0.3l-0.4-0.1L29.3,40
					C29.3,39.9,29.2,39.9,29.1,39.9z"/>
				<path id="eydlib7ehv1152" class="st7" d="M52.1,47.3l0.4,0.1l0.2,0.4c0,0.1,0.1,0.1,0.2,0.1l0.2-0.1c0.1,0,0.1-0.1,0.1-0.2
					l-0.4-1.2c0,0,0-0.1-0.1-0.1c0,0-0.1,0-0.1,0l-0.2,0c-0.1,0-0.1,0.1-0.1,0.2l0.1,0.4L52.1,47.3z"/>
				<path id="eydlib7ehv1153" class="st6" d="M29.2,41.7c-0.1,0-0.1,0-0.2,0c-0.1,0-0.1-0.1-0.2-0.2l-0.3-1.2c0-0.2,0.1-0.3,0.2-0.4
					l0.2-0.1c0.2-0.1,0.4,0,0.4,0.2l0.1,0.3l0.5,0.1l-0.3,0.4l0.1,0.4c0,0.2-0.1,0.3-0.2,0.4L29.2,41.7
					C29.3,41.7,29.3,41.7,29.2,41.7z M29.1,39.9C29.1,39.9,29.1,39.9,29.1,39.9L28.9,40c-0.1,0-0.1,0.1-0.1,0.2l0.3,1.3
					c0,0,0,0.1,0.1,0.1c0,0,0.1,0,0.1,0l0.3-0.1c0.1,0,0.1-0.1,0.1-0.2l-0.1-0.4l0.2-0.3l-0.4-0.1L29.3,40
					C29.3,39.9,29.2,39.9,29.1,39.9z"/>
				<path id="eydlib7ehv1154" class="st6" d="M52.8,48.1c-0.1,0-0.2-0.1-0.3-0.2l-0.1-0.3l-0.5-0.1l0.3-0.5l-0.1-0.4
					c0-0.2,0-0.3,0.2-0.4l0.2-0.1c0.1,0,0.2,0,0.3,0c0.1,0,0.1,0.1,0.2,0.2l0.4,1.2c0.1,0.2,0,0.3-0.2,0.4l-0.2,0.1
					C52.9,48.1,52.9,48.1,52.8,48.1z M52.1,47.3l0.4,0.1l0.2,0.4c0,0.1,0.1,0.1,0.2,0.1l0.2-0.1c0.1,0,0.1-0.1,0.1-0.2l-0.4-1.2
					c0,0,0-0.1-0.1-0.1c0,0-0.1,0-0.1,0l-0.2,0c-0.1,0-0.1,0.1-0.1,0.2l0.1,0.4L52.1,47.3z"/>
				<path id="eydlib7ehv1155" class="st6" d="M40,46.4c-0.1,0-0.2,0-0.3,0c-0.5-0.1-1-0.4-1.4-0.8c-0.3-0.4-0.4-1-0.4-1.5
					c0.2-1.1,1.2-1.9,2.3-1.8c0.5,0.1,1,0.4,1.4,0.8c0.3,0.4,0.4,1,0.4,1.5C41.9,45.7,41,46.4,40,46.4z M40.1,42.5
					c-0.9,0-1.8,0.7-1.9,1.6c-0.1,0.5,0.1,1,0.3,1.4c0.3,0.4,0.7,0.7,1.2,0.7c1,0.1,2-0.6,2.1-1.6c0.1-0.5,0-1-0.3-1.4
					c-0.3-0.4-0.7-0.7-1.2-0.7C40.2,42.5,40.1,42.5,40.1,42.5z"/>
				<path id="eydlib7ehv1156" class="st7" d="M42.9,44.1l-0.3,1.6c0,0,0,0.1,0,0.1s0.1,0.1,0.1,0.1l0.4,0.1c0.1,0,0.2-0.1,0.2-0.1
					l0.2-1.6c0,0,0-0.1,0-0.1S43.5,44,43.4,44L43,43.9C43,43.9,42.9,43.9,42.9,44.1z"/>
				<path id="eydlib7ehv1157" class="st7" d="M44,44c-0.1,0-0.1,0.1-0.1,0.2l-0.2,1.6c0,0.1,0,0.1,0,0.1s0,0,0.1,0l0.3,0
					c0.1,0,0.1-0.1,0.1-0.2l0.2-1.6c0-0.1,0-0.1,0-0.1c0,0,0,0-0.1,0L44,44z"/>
				<path id="eydlib7ehv1158" class="st6" d="M43.2,46.1C43.1,46.1,43.1,46.1,43.2,46.1l-0.5-0.1c-0.1,0-0.2-0.1-0.2-0.1
					c-0.1-0.1-0.1-0.2-0.1-0.2l0.3-1.6c0-0.2,0.2-0.3,0.4-0.3l0.4,0.1c0.1,0,0.2,0.1,0.2,0.1c0.1,0.1,0.1,0.2,0.1,0.2l-0.2,1.6
					C43.6,46,43.4,46.1,43.2,46.1z M42.9,44.1l-0.3,1.6c0,0,0,0.1,0,0.1s0.1,0.1,0.1,0.1l0.4,0.1c0.1,0,0.2-0.1,0.2-0.1l0.2-1.6
					c0,0,0-0.1,0-0.1S43.5,44,43.4,44L43,43.9C43,43.9,42.9,43.9,42.9,44.1z"/>
				<path id="eydlib7ehv1159" class="st6" d="M44.1,46.2C44.1,46.2,44,46.2,44.1,46.2l-0.4,0c-0.1,0-0.1,0-0.2-0.1
					c-0.1-0.1-0.1-0.2-0.1-0.3l0.2-1.6c0-0.2,0.2-0.3,0.3-0.3l0.3,0c0.1,0,0.1,0,0.2,0.1c0.1,0.1,0.1,0.2,0.1,0.3l-0.2,1.6
					C44.3,46,44.2,46.2,44.1,46.2z M44,44c-0.1,0-0.1,0.1-0.1,0.2l-0.2,1.6c0,0.1,0,0.1,0,0.1s0,0,0.1,0l0.3,0
					c0.1,0,0.1-0.1,0.1-0.2l0.2-1.6c0-0.1,0-0.1,0-0.1c0,0,0,0-0.1,0L44,44z"/>
				<path id="eydlib7ehv1160" class="st6" d="M42.7,44.3c-0.3,0-0.5,0-0.8-0.1l0-0.2c0.2,0,0.5,0.1,0.7,0.1V44.3z"/>
				<path id="eydlib7ehv1161" class="st6" d="M38.4,43.5c-1.5-0.4-2.2-0.9-2.3-1l0.1-0.1c0,0,0.7,0.4,2.2,0.9L38.4,43.5L38.4,43.5z"
					/>
				<path id="eydlib7ehv1162" class="st6" d="M42.6,45.5c-0.3,0-0.6-0.1-0.9-0.1l0-0.2c0.3,0,0.6,0.1,0.8,0.1L42.6,45.5L42.6,45.5z"
					/>
				<path id="eydlib7ehv1163" class="st6" d="M38,44.6c-1.4-0.4-2-0.9-2.1-0.9l0.1-0.1c0,0,0.7,0.4,2,0.9L38,44.6z"/>
				<path id="eydlib7ehv1164" class="st6" d="M42.3,41.2c-0.2,0-0.4,0-0.6,0c-3.6-0.2-4.4-2.7-4.5-2.9c0,0,0,0,0,0
					c0.1-1.4,0.3-2.1,1.5-4.4c0.6-1.2,2-2.2,3.4-2.4c1.5-0.2,2.9,0.3,4,1.5c2.6,2.7,0.2,6.8,0.2,6.8C46.3,39.7,45.6,41.2,42.3,41.2z
					 M37.4,38.2c0.1,0.3,0.9,2.7,4.4,2.8c3.7,0.2,4.4-1.5,4.4-1.5c0,0,2.3-4-0.2-6.6c-1.1-1.1-2.5-1.6-3.9-1.4
					c-1.4,0.2-2.7,1.1-3.3,2.3C37.6,36.1,37.4,36.8,37.4,38.2z"/>
				<path id="eydlib7ehv1165" class="st6" d="M42.1,41.9c-3.6,0-4.9-2.1-5.1-2.8c-0.2-0.4,0.2-1,0.2-1l0.1,0.1c0,0-0.3,0.4-0.2,0.8
					c0.3,0.7,1.6,2.9,5.5,2.7c2.1-0.1,3-0.7,3.3-1.2c0.4-0.5,0.2-1,0.2-1l0.2,0c0,0,0.1,0.6-0.3,1.2c-0.5,0.7-1.7,1.2-3.5,1.3
					C42.5,41.9,42.3,41.9,42.1,41.9z"/>
				<path id="eydlib7ehv1166" class="st5" d="M37.3,39.7c0,0-1.5,2.4-1.6,5.8c0,0.1-0.1,0.2-0.1,0.2c-0.1,0-0.1,0-0.2,0
					c-0.1,0-0.1-0.1-0.1-0.2c0-0.3,0.2-2.6,0.2-2.8c0.3-1.5,0.4-2.1,0.6-2.3c0.1-0.1,0.2-0.3,0.3-0.6c0.1-0.2,0.1-0.3,0.2-0.4
					c0.1-0.2,0.3-0.3,0.4-0.4c0,0.1,0.1,0.2,0.1,0.3C37.1,39.4,37.2,39.5,37.3,39.7z"/>
				<path id="eydlib7ehv1167" class="st6" d="M35.4,45.8c-0.1,0-0.2,0-0.2-0.1c-0.1-0.1-0.2-0.2-0.2-0.3c0-1.2,0.3-3.8,1.1-5.8
					c0.2-0.4,0.4-0.8,0.7-1l0.1,0.2c-0.3,0.2-0.5,0.5-0.7,0.9c-0.8,1.9-1.1,4.5-1.1,5.7c0,0.1,0,0.1,0.1,0.2c0.1,0,0.1,0,0.2,0
					c0.1,0,0.1-0.1,0.1-0.2c0.1-3.4,1.6-5.8,1.6-5.8l0.1,0.1c0,0-1.4,2.3-1.5,5.7c0,0.2-0.1,0.3-0.3,0.3
					C35.6,45.8,35.5,45.8,35.4,45.8z"/>
				<path id="eydlib7ehv1168" class="st6" d="M36,40.3c0,0-0.9-0.1-2.7-0.6c-0.3-0.1-0.5-0.3-0.7-0.5c-0.3-1,0.7-2.7,1.1-3.3
					c-2,0-2.8-1.2-3-1.7c-0.4,0.6-1.8,3.2-1.7,5.5h-0.2c-0.2-2.7,1.8-5.8,1.8-5.8l0.1-0.2l0.1,0.2c0,0.1,0.6,1.9,3.1,1.8H34L34,35.8
					c0,0-1.5,2.2-1.2,3.2c0.1,0.2,0.3,0.4,0.5,0.4c1.8,0.4,2.7,0.6,2.7,0.6L36,40.3L36,40.3z"/>
				<path id="eydlib7ehv1169" class="st6" d="M35.2,44.2c-0.2,0-4.6-0.7-5.8-2.6l0.1-0.1c1.1,1.8,5.6,2.5,5.7,2.5L35.2,44.2z"/>
				<path id="eydlib7ehv1170" class="st6" d="M46.4,40.2l0.2,0.1l0.2-0.1l-0.3-0.2L46.4,40.2z"/>
				<path id="eydlib7ehv1171" class="st6" d="M34,36l-0.1-0.2c1.6-0.4,2.5-1.5,2.7-1.7c-0.2-0.7-0.4-1-0.4-1l-1.4,0.7
					c0,0-0.1,0-0.1,0s0-0.1,0-0.1c0.7-0.8,1.3-2.1,1.4-2.3c-1.1-1.2-2.7-1-3-1c-1.3,1.2-2.2,4-2.2,4l-0.2,0c0-0.1,0.9-2.8,2.3-4.1
					l0,0h0c0,0,1.9-0.3,3.2,1l0,0l0,0.1c0,0.1-0.6,1.3-1.3,2.2l1.2-0.7l0,0c0,0,0.2,0.2,0.5,1.2v0l0,0C36.7,34.2,35.8,35.4,34,36z"
					/>
				<path id="eydlib7ehv1172" class="st5" d="M47.1,40.2C47.1,40.2,47,40.2,47.1,40.2c-0.5,0.3-2.1,1.3-2.5,4.2
					c-0.3,1.8,0.2,3.3,1.5,4.5c0.1,0.1,0.1,0.1,0.2,0c0.1,0,0.1-0.1,0.1-0.2l0.1-0.6c0-0.1,0-0.2-0.1-0.2c-0.4-0.2-1.1-1-0.8-3.5
					c0.2-2.3,1.4-3.3,2.1-3.6c0.1,0,0.1-0.1,0.1-0.2c0-0.1,0-0.1-0.1-0.2l-0.4-0.2C47.2,40.2,47.2,40.2,47.1,40.2z"/>
				<path id="eydlib7ehv1173" class="st6" d="M46.2,49.2c-0.1,0-0.2,0-0.3-0.1c-1.2-1.2-1.8-2.9-1.5-4.7c0.4-3,2-4,2.5-4.2
					c0.1-0.1,0.3,0,0.4,0l0.4,0.3c0.1,0.1,0.2,0.2,0.2,0.3c0,0.1-0.1,0.3-0.2,0.3c-0.7,0.4-1.8,1.3-2.1,3.5
					c-0.2,2.4,0.4,3.1,0.7,3.3c0.1,0.1,0.2,0.2,0.2,0.4l-0.1,0.6C46.5,49,46.4,49.2,46.2,49.2C46.3,49.2,46.2,49.2,46.2,49.2z
					 M47.1,40.2C47.1,40.2,47,40.2,47.1,40.2c-0.5,0.3-2.1,1.3-2.5,4.2c-0.3,1.8,0.2,3.3,1.5,4.5c0.1,0.1,0.1,0.1,0.2,0
					c0.1,0,0.1-0.1,0.1-0.2l0.1-0.6c0-0.1,0-0.2-0.1-0.2c-0.4-0.2-1.1-1-0.8-3.5c0.2-2.3,1.4-3.3,2.1-3.6c0.1,0,0.1-0.1,0.1-0.2
					c0-0.1,0-0.1-0.1-0.2l-0.4-0.2C47.2,40.2,47.2,40.2,47.1,40.2z"/>
				<path id="eydlib7ehv1174" class="st6" d="M46.5,45.2l-0.4,2.5l0.2,0l0.4-2.5L46.5,45.2z"/>
				<path id="eydlib7ehv1175" class="st6" d="M45.8,49l-0.4,2.8l0.2,0L46,49L45.8,49z"/>
				<path id="eydlib7ehv1176" class="st6" d="M52.2,46.2C51.7,45.1,51,44,50.2,43c0,0-0.9-1-2.4-2l0.1-0.1c1.5,1,2.4,2.1,2.4,2.1
					C51.1,43.9,51.8,45,52.2,46.2L52.2,46.2z"/>
				<path id="eydlib7ehv1177" class="st6" d="M52.1,53.4c-1.5,0-2.7-0.7-2.7-0.7l0,0v-0.2c0-0.4,0-1.2,0-2.3c-0.2-3.9-3.2-4.9-3.3-5
					l0.1-0.2c0,0,3.2,1.1,3.4,5.1c0.1,1.1,0,1.9,0,2.3v0.1c0.3,0.2,2,1,3.7,0.5c0.1-0.3,0.6-2.3-0.3-5.2l0.2,0
					c1,3.1,0.2,5.3,0.2,5.3v0h0C52.9,53.4,52.4,53.4,52.1,53.4z"/>
				<path id="eydlib7ehv1178" class="st6" d="M51.1,56.8c-0.9,0-1.6-0.3-2-0.6c-0.3-0.2-0.4-0.6-0.3-1c0.7-1.2,0.7-2.4,0.7-2.4h0.2
					c0,0.1-0.1,1.2-0.7,2.5c-0.1,0.3-0.1,0.6,0.2,0.7c0.6,0.4,1.8,0.9,3.4,0.2c0.2-0.1,0.3-0.2,0.3-0.4c0.1-0.4,0.2-1.2,0.1-2.7h0.2
					c0.1,1.4,0,2.3-0.1,2.7c-0.1,0.2-0.2,0.4-0.4,0.5C52,56.6,51.5,56.8,51.1,56.8z"/>
				<path id="eydlib7ehv1179" class="st6" d="M49.1,54.7l-0.5-0.1c-0.1,0-0.2-0.1-0.3-0.2c-0.1-0.1-0.1-0.3,0-0.4l0.2-0.7
					c0.1-0.2,0.2-0.3,0.4-0.3l0.7,0v0.2h-0.7c-0.1,0-0.2,0.1-0.3,0.2l-0.2,0.7c0,0.1,0,0.2,0,0.2c0,0.1,0.1,0.1,0.2,0.1l0.5,0.1
					L49.1,54.7z"/>
				<path id="eydlib7ehv1180" class="st6" d="M35.4,45.8l-0.2,3.7h0.2l0.2-3.7H35.4z"/>
				<path id="eydlib7ehv1181" class="st5" d="M45.4,53.3c-0.2,0.1-0.4,0.1-0.4,0c-1-0.3-2.1,0.1-5.8-0.8c-1.4-0.3-1.3-0.4-2.5-0.7
					c-0.2-0.1-0.5-0.2-1.1-0.4c-0.4-0.2-0.6-0.2-0.7-0.4c-0.1-0.1,0-0.2,0.1-1c0-0.3,0-0.4,0.1-0.4c0.2-0.2,0.8,0.2,1.3,0.4
					c1,0.5,1.9,0.7,3.6,1.2c0.2,0,0.8,0.2,1.8,0.3c1.3,0.2,2,0.3,2.5,0.3c0.7,0,1.3,0,1.4,0.3c0,0.1,0,0.1-0.1,0.7
					C45.4,53,45.4,53.2,45.4,53.3z"/>
				<path id="eydlib7ehv1182" class="st7" d="M42.4,50.7c-0.1,0-0.2,0-0.2,0.1C42,50.9,42,51,41.9,51.1l-0.3,2.1
					c0,0.2,0.1,0.4,0.3,0.4l1.1,0.2c0.2,0,0.4-0.1,0.4-0.3l0.3-2.1c0-0.2-0.1-0.4-0.3-0.4L42.4,50.7C42.4,50.7,42.4,50.7,42.4,50.7z
					"/>
				<path id="eydlib7ehv1183" class="st7" d="M37,49.4C36.9,49.4,36.9,49.4,37,49.4c-0.1,0.1-0.1,0.1-0.1,0.1l-0.4,2.6
					c0,0,0,0.1,0,0.1c0,0,0.1,0,0.1,0.1l0.3,0c0,0,0.1,0,0.1,0c0,0,0.1-0.1,0.1-0.1l0.4-2.6c0,0,0-0.1,0-0.1c0,0-0.1,0-0.1-0.1
					L37,49.4z"/>
				<path id="eydlib7ehv1184" class="st6" d="M43.2,54C43.1,54,43.1,54,43.2,54L42,53.8c-0.3,0-0.5-0.3-0.4-0.7l0.3-2.1
					c0-0.1,0.1-0.3,0.2-0.4c0.1-0.1,0.3-0.1,0.4-0.1l1.1,0.2c0.3,0,0.5,0.3,0.4,0.7l-0.3,2.1C43.7,53.8,43.4,54,43.2,54z M42.4,50.7
					c-0.1,0-0.2,0-0.2,0.1C42,50.9,42,51,41.9,51.1l-0.3,2.1c0,0.2,0.1,0.4,0.3,0.4l1.1,0.2c0.2,0,0.4-0.1,0.4-0.3l0.3-2.1
					c0-0.2-0.1-0.4-0.3-0.4L42.4,50.7C42.4,50.7,42.4,50.7,42.4,50.7z"/>
				<path id="eydlib7ehv1185" class="st6" d="M36.9,52.5C36.9,52.5,36.9,52.5,36.9,52.5l-0.4-0.1c-0.1,0-0.1-0.1-0.2-0.1
					c0-0.1-0.1-0.1-0.1-0.2l0.4-2.6c0-0.1,0.1-0.1,0.1-0.2c0.1,0,0.1-0.1,0.2-0.1l0.3,0.1c0.1,0,0.2,0.1,0.2,0.1
					c0,0.1,0.1,0.1,0.1,0.2l-0.4,2.6c0,0.1-0.1,0.2-0.1,0.2C37,52.5,37,52.5,36.9,52.5z M37,49.4C36.9,49.4,36.9,49.4,37,49.4
					c-0.1,0.1-0.1,0.1-0.1,0.1l-0.4,2.6c0,0,0,0.1,0,0.1s0.1,0,0.1,0.1l0.3,0c0,0,0.1,0,0.1,0c0,0,0.1-0.1,0.1-0.1l0.4-2.6
					c0,0,0-0.1,0-0.1c0,0-0.1,0-0.1-0.1L37,49.4z"/>
				<path id="eydlib7ehv1186" class="st6" d="M35.7,49.6l-0.2,1.7l0.2,0l0.2-1.7L35.7,49.6z"/>
				<path id="eydlib7ehv1187" class="st6" d="M38.1,50.6l-0.2,1.6l0.2,0l0.2-1.6L38.1,50.6z"/>
				<path id="eydlib7ehv1188" class="st6" d="M39.7,50.9l-0.2,1.6l0.2,0l0.2-1.6L39.7,50.9z"/>
				<path id="eydlib7ehv1189" class="st6" d="M41.1,51.2l-0.2,1.5l0.2,0l0.2-1.5L41.1,51.2z"/>
				<path id="eydlib7ehv1190" class="st6" d="M44.6,51.7l-0.2,1.6l0.2,0l0.2-1.6L44.6,51.7z"/>
				<path id="eydlib7ehv1191" class="st6" d="M45.2,53.4c-0.3,0-0.8,0-1.6-0.1v-0.2c0.7,0.1,1.3,0.1,1.5,0.1c0.1,0,0.1-0.1,0.2-0.1
					l0.2-1c0,0,0-0.1,0-0.1s-0.1-0.1-0.1-0.1c-0.5,0-1-0.1-1.5-0.1l0-0.2c0.4,0,1,0.1,1.5,0.1c0.1,0,0.2,0.1,0.2,0.1
					s0.1,0.2,0.1,0.3l-0.2,1C45.5,53.3,45.4,53.4,45.2,53.4z"/>
				<path id="eydlib7ehv1192" class="st6" d="M41.9,51.5c-1.8-0.3-3.3-0.6-4.5-1l0.1-0.2c1.2,0.4,2.8,0.8,4.5,1L41.9,51.5z"/>
				<path id="eydlib7ehv1193" class="st6" d="M36.4,51.7c-0.4-0.2-1-0.4-1.4-0.5c-0.1-0.1-0.2-0.2-0.2-0.3l0.1-1.2
					c0-0.1,0.1-0.2,0.2-0.3c0.1-0.1,0.2,0,0.3,0c0.2,0.1,0.7,0.4,1.2,0.7l-0.1,0.2c-0.7-0.3-1-0.4-1.3-0.7c0,0-0.1,0-0.2,0
					c-0.1,0-0.1,0.1-0.1,0.1l-0.1,1.2c0,0.1,0,0.1,0.1,0.2c0.4,0.2,0.9,0.4,1.4,0.5V51.7z"/>
				<path id="eydlib7ehv1194" class="st6" d="M41.6,53c-1.6-0.2-3.1-0.6-4.5-1.1l0.1-0.2c1.4,0.4,2.9,0.8,4.5,1.1L41.6,53z"/>
				<path id="eydlib7ehv1195" class="st6" d="M30.2,60.7c-0.2,0-0.4-0.1-0.7-0.2l-1.2-0.7c-0.4-0.2-0.7-0.7-0.7-1.2v-0.1
					c0-0.2,0-0.4,0.1-0.6l1.9-4.7c0.3-0.8,1-1.4,1.8-1.6l3.5-0.8l0,0.2l-3.5,0.8c-0.8,0.2-1.4,0.7-1.8,1.5L27.8,58
					c-0.1,0.2-0.1,0.3-0.1,0.5v0.1c0,0.4,0.3,0.8,0.7,1l1.2,0.7c0.4,0.2,0.8,0.2,1.2,0c0.2-0.1,0.3-0.3,0.4-0.4l1.6-3.1
					c0.2-0.4,0.2-0.8,0-1.1l-0.1-0.2l0.1-0.1l0.1,0.2c0.2,0.4,0.2,0.9,0,1.3l-1.6,3.1c-0.1,0.2-0.3,0.4-0.5,0.5
					C30.7,60.6,30.5,60.7,30.2,60.7z"/>
				<path id="eydlib7ehv1196" class="st6" d="M37.6,55.7l-4.5,0.4v0.2l4.5-0.4V55.7z"/>
				<path id="eydlib7ehv1197" class="st6" d="M39.7,65.5c-0.1,0-0.3,0-0.4-0.1l-0.4-0.2c-0.2-0.1-0.3-0.2-0.4-0.4l-1.9-3.4
					c-0.4-0.9-0.5-2-0.1-2.9l2-4.3l0.2,0.1l-2,4.3c-0.4,0.9-0.3,1.9,0.1,2.8l1.9,3.4c0.1,0.1,0.2,0.2,0.3,0.3l0.4,0.2
					c0.1,0.1,0.3,0.1,0.4,0.1c0.5,0,1.3-0.2,1.8-1c0.1-0.1,0.1-0.2,0.1-0.3l0-0.4c0-0.1,0-0.2,0-0.3l-0.8-3.2
					c-0.1-0.4-0.3-0.7-0.7-0.6l0-0.2c0.6-0.1,0.8,0.5,0.8,0.7l0.8,3.2c0,0.1,0,0.2,0,0.3l0,0.4c0,0.1-0.1,0.3-0.1,0.4
					C41.1,65.3,40.2,65.5,39.7,65.5C39.7,65.5,39.7,65.5,39.7,65.5z"/>
				<path id="eydlib7ehv1198" class="st6" d="M40.8,59.8l-0.1-0.1l3.5-3.5c0.4-0.4,0.7-1,0.7-1.6l0.1-1.3h0.2l-0.1,1.3
					c-0.1,0.7-0.3,1.2-0.8,1.7L40.8,59.8z"/>
				<path id="eydlib7ehv1199" class="st6" d="M42.7,40c-1,0-2.4-0.3-3.7-1.4c-0.6-0.5-0.7-1.3-0.4-2l0.8-1.8c0.3-0.7,1-1,1.5-0.8
					l3.8,1.6c0.5,0.2,0.8,0.8,0.6,1.4l-0.8,2.3c-0.1,0.3-0.4,0.6-0.8,0.7C43.4,40,43.1,40,42.7,40z M40.6,34.1c-0.4,0-0.7,0.3-1,0.7
					l-0.8,1.8c-0.3,0.6-0.1,1.4,0.4,1.8c1.7,1.5,3.5,1.5,4.4,1.3c0.3-0.1,0.6-0.3,0.7-0.6l0.8-2.3c0.2-0.4,0-1-0.4-1.2l-3.8-1.6
					C40.8,34.1,40.7,34.1,40.6,34.1z"/>
				<path id="eydlib7ehv1200" class="st6" d="M43,40.6c-1.2,0-2.8-0.3-4.4-1.8c-0.7-0.6-0.9-1.6-0.5-2.5l1-2.2
					c0.4-1,1.2-1.2,1.8-0.9l4.5,2c0.6,0.3,0.9,1,0.7,1.7l-1,2.7c-0.2,0.4-0.5,0.7-1,0.8C43.8,40.6,43.4,40.6,43,40.6z M40.4,33.4
					c-0.4,0-0.9,0.3-1.2,0.9l-1,2.2c-0.3,0.8-0.2,1.7,0.4,2.3c2,1.9,4.2,1.8,5.3,1.6c0.4-0.1,0.7-0.3,0.8-0.7l1-2.7
					c0.2-0.6,0-1.2-0.6-1.4l-4.5-2C40.6,33.4,40.5,33.4,40.4,33.4z"/>
				<path id="eydlib7ehv1201" class="st6" d="M48.3,54c-0.7,0-1.2-0.2-1.5-0.7c-0.3-0.4-0.3-0.9,0-1.4c0.4-0.9,0-1.3-0.1-1.3
					l0.1-0.1c0,0,0.6,0.5,0.1,1.5c-0.2,0.4-0.2,0.9,0,1.2c0.2,0.4,0.7,0.6,1.4,0.6L48.3,54L48.3,54z"/>
				<path id="eydlib7ehv1202" class="st6" d="M53.1,54.4l0-0.2c0,0,1.9-0.4,2.9-2.3c0.9-1.8,0.7-4.4-0.7-7.5c-1.6-3.6-2-6.3-1-7.9
					c0.7-1.2,2-1.4,2-1.4l0,0.2c0,0-1.2,0.2-1.9,1.4c-0.6,1.1-1,3.3,1,7.8c1.4,3.3,1.7,5.8,0.7,7.7C55.1,54,53.1,54.4,53.1,54.4z"/>
				<path id="eydlib7ehv1203" class="st6" d="M38.1,69.7c-0.4,0-0.8-0.1-1-0.4c-0.8-1.1,0-2.2,0-2.2l1.5-2.1l0.1,0.1l-1.5,2
					c0,0-0.7,1,0,2c0.5,0.7,1.8,0.2,2,0.1l3.6-3.5c0.2-0.2,0.3-0.3,0.1-0.5l-0.8-1l-0.4-0.4l0.1-0.1l0.4,0.4l0.8,1
					c0.2,0.4,0.1,0.5-0.1,0.7l0,0l-3.6,3.5C39.2,69.4,38.6,69.7,38.1,69.7z"/>
				<path id="eydlib7ehv1204" class="st6" d="M38.8,70c-0.6,0-1-0.3-1-0.3l0.1-0.1c0,0,0.9,0.7,1.9-0.1c0.4-0.4,1.1-1.1,1.8-1.8
					c0.7-0.7,1.2-1.3,1.5-1.6c0.1-0.1,0.1-0.2,0.1-0.3L43,65.6l0.1-0.1l0.1,0.2c0.1,0.2,0,0.3-0.1,0.4c-0.3,0.3-0.9,0.9-1.5,1.6
					c-0.7,0.7-1.3,1.4-1.8,1.8C39.5,69.9,39.1,70,38.8,70z"/>
				<path id="eydlib7ehv1205" class="st6" d="M38.1,68.5c-0.1,0-0.3,0-0.4-0.1c-0.2-0.1-0.3-0.3-0.3-0.4c-0.1-0.5,0.4-1.2,0.4-1.2
					l0-0.1l1.5,0.9l0,0.1C39.3,67.7,38.7,68.5,38.1,68.5z M37.9,66.9c-0.1,0.2-0.4,0.7-0.4,1c0,0.1,0.1,0.3,0.2,0.4
					c0.6,0.4,1.2-0.4,1.4-0.7L37.9,66.9z"/>
				<path id="eydlib7ehv1206" class="st6" d="M39.2,66.7c-0.1,0-0.2,0-0.2-0.1c-0.1-0.1-0.2-0.2-0.2-0.3s0-0.3,0.1-0.4l0.4-0.6
					l0.1,0.1L38.9,66c0,0.1-0.1,0.2,0,0.2c0,0.1,0.1,0.2,0.1,0.2c0.1,0.1,0.3,0,0.4-0.1l0.8-1l0.1,0.1l-0.8,1
					C39.5,66.6,39.3,66.7,39.2,66.7z"/>
				<path id="eydlib7ehv1207" class="st6" d="M29.1,63.3c-0.1,0-0.1,0-0.2-0.1l-5.2-2.6c-0.2-0.1-0.3-0.4-0.2-0.7
					c0.2-0.4,0.6-1.1,1.3-1.3c0.4-0.1,0.8-0.1,1.3,0.2c1.3,0.7,1.8,0.4,1.8,0.4l0.1,0.1c0,0-0.6,0.3-2-0.4c-0.4-0.2-0.8-0.3-1.2-0.1
					c-0.6,0.2-1,0.8-1.2,1.2c-0.1,0.2,0,0.4,0.1,0.4l5.3,2.6c0.2,0.1,0.4,0,0.4-0.1l0.8-1.7c0-0.1,0-0.1,0-0.2l0-0.3l0.2,0l0,0.3
					c0,0.1,0,0.2,0,0.3L29.5,63C29.4,63.1,29.3,63.3,29.1,63.3z"/>
				<path id="eydlib7ehv1208" class="st6" d="M23.7,59.6l-0.1,0.1l5.9,2.9l0.1-0.1L23.7,59.6z"/>
				<path id="eydlib7ehv1209" class="st6" d="M26.3,60c-0.1,0-0.2,0-0.2,0l-0.6-0.3c-0.2-0.1-0.3-0.3-0.3-0.4c0-0.4,0-0.4,0-0.4
					l0.2,0c0,0,0,0,0,0.4c0,0.1,0.1,0.3,0.2,0.3l0.6,0.3c0.1,0,0.2,0,0.3,0l0.7-0.4l0.1,0.1l-0.7,0.4C26.5,59.9,26.4,60,26.3,60z"/>
				<path id="eydlib7ehv1210" class="st6" d="M37,60c0.2,0,0.3,0,0.5,0c0.2,0,0.3,0.1,0.4,0.2c-0.2,0-0.3,0-0.5,0
					C37.3,60.1,37.1,60.1,37,60z"/>
				<path id="eydlib7ehv1211" class="st6" d="M30.5,53.3c0.1,0.1,0.3,0.2,0.3,0.4c0.1,0.1,0.2,0.3,0.2,0.4c-0.1-0.1-0.3-0.2-0.3-0.4
					C30.6,53.6,30.6,53.4,30.5,53.3z"/>
				<path id="eydlib7ehv1212" class="st6" d="M36.7,53.4c0.2,0.2,0.3,0.4,0.4,0.6c0.1,0.2,0.2,0.4,0.2,0.7c-0.2-0.2-0.3-0.4-0.4-0.6
					C36.9,53.8,36.8,53.6,36.7,53.4z"/>
				<path id="eydlib7ehv1213" class="st6" d="M44.9,35.9l-4-1.8l-0.7,0l-0.5,0.3L38.5,37l0.1,0.9l0.2,0.4l1.2,1l1,0.4l1.3,0.3l1,0
					l0.7-0.3l1.1-2.7l0-0.5L44.9,35.9z M44.3,37.2c-0.2,0.4-1,0.4-1.8,0c-0.7-0.4-1.1-1.1-0.8-1.5c0.2-0.4,1-0.4,1.8,0
					C44.2,36.1,44.6,36.8,44.3,37.2z"/>
			</g>
		</g>
	</g>
</g>
<g>
	<path class="st8" d="M57.7,91.4l1.6-0.9l0.1,0.1c0.2,0.3,0.3,0.5,0.3,0.8c0,0.3,0,0.5,0,0.8c-0.1,0.6-0.5,1.1-1,1.4
		C58.2,94,57.6,94,57,93.9c-1.2-0.3-2-1.6-1.6-2.9c0,0,0,0,0,0c0.2-0.6,0.6-1.1,1.1-1.4c0.3-0.2,0.6-0.3,1-0.3c0.4,0,0.7,0,1.1,0.2
		l-0.2,0.7c-0.8-0.4-1.8-0.1-2.2,0.6c-0.1,0.1-0.1,0.2-0.1,0.4c-0.1,0.4-0.1,0.9,0.2,1.3c0.2,0.4,0.6,0.7,1.1,0.8
		c0.4,0.1,0.8,0,1.2-0.2c0.3-0.2,0.5-0.4,0.6-0.7c0.1-0.3,0.1-0.6,0-0.9l-1,0.6L57.7,91.4z"/>
	
		<rect x="61.4" y="86.9" transform="matrix(0.8665 -0.4992 0.4992 0.8665 -36.2738 42.7552)" class="st8" width="0.7" height="4.5"/>
	<polygon class="st8" points="64.6,85.7 66.5,89 65.9,89.4 64,86 63.1,86.6 62.8,86 65.2,84.6 65.5,85.2 	"/>
	<path class="st8" d="M69.9,82.2l0.4,0.7c-0.4-0.1-0.9,0-1.3,0.2c-0.4,0.2-0.7,0.6-0.8,1c-0.1,0.4,0,0.9,0.2,1.3
		c0.2,0.4,0.6,0.7,1,0.8c0.4,0.1,0.9,0.1,1.3-0.2c0.2-0.1,0.4-0.2,0.5-0.4c0.1-0.1,0.1-0.2,0.2-0.3c0.1-0.1,0.1-0.2,0.2-0.4l0.4,0.7
		c-0.2,0.4-0.5,0.7-0.9,0.9c-1.1,0.6-2.5,0.3-3.2-0.9c-0.3-0.5-0.4-1-0.3-1.6c0.1-0.7,0.5-1.3,1.2-1.6
		C69.1,82.3,69.5,82.2,69.9,82.2"/>
	<path class="st4" d="M72.8,82c-0.3-0.5-0.4-1.2-0.2-1.8c0.2-0.6,0.6-1.1,1.1-1.4c1.1-0.6,2.6-0.3,3.2,0.9c0.3,0.5,0.4,1.2,0.2,1.8
		c-0.3,1.2-1.6,1.9-2.8,1.7C73.7,83,73.1,82.6,72.8,82 M73.4,81.7c0.5,0.8,1.5,1.1,2.3,0.6c0.4-0.2,0.7-0.6,0.8-1
		c0.2-0.9-0.3-1.8-1.2-2.1c-0.4-0.1-0.9-0.1-1.3,0.2c-0.4,0.2-0.7,0.6-0.8,1C73,80.8,73.1,81.3,73.4,81.7"/>
	
		<rect x="78.9" y="76.9" transform="matrix(0.8663 -0.4995 0.4995 0.8663 -28.9195 50.1734)" class="st8" width="0.7" height="4.5"/>
	<polygon class="st8" points="83,79.6 80.6,75.4 85.1,76.8 83.6,74.1 84.1,73.7 86.5,77.9 82,76.5 83.5,79.2 	"/>
</g>
</svg>
